<?xml version="1.0" encoding="UTF-8" standalone="no"?>
<svg
   version="1.1"
   style="display:block"
   viewBox="0 0 2033.1162 1143"
   width="1366"
   height="768"
   preserveAspectRatio="none"
   id="svg125"
   sodipodi:docname="svg-ai-nullspace-written-in-futuristic-sci-fi-font-in-fro-2026-04-27.svg"
   inkscape:version="1.4.3 (0d15f75042, 2025-12-25)"
   xmlns:inkscape="http://www.inkscape.org/namespaces/inkscape"
   xmlns:sodipodi="http://sodipodi.sourceforge.net/DTD/sodipodi-0.dtd"
   xmlns="http://www.w3.org/2000/svg"
   xmlns:svg="http://www.w3.org/2000/svg">
  <sodipodi:namedview
     id="namedview125"
     pagecolor="#505050"
     bordercolor="#eeeeee"
     borderopacity="1"
     inkscape:showpageshadow="0"
     inkscape:pageopacity="0"
     inkscape:pagecheckerboard="0"
     inkscape:deskcolor="#505050"
     showgrid="true"
     inkscape:zoom="0.72395833"
     inkscape:cx="432.34532"
     inkscape:cy="501.41007"
     inkscape:window-width="2560"
     inkscape:window-height="1372"
     inkscape:window-x="0"
     inkscape:window-y="0"
     inkscape:window-maximized="1"
     inkscape:current-layer="svg125">
    <inkscape:grid
       id="grid125"
       units="px"
       originx="0"
       originy="0"
       spacingx="1.488372"
       spacingy="1.4882812"
       empcolor="#0099e5"
       empopacity="0.30196078"
       color="#0099e5"
       opacity="0.14901961"
       empspacing="5"
       enabled="true"
       visible="true" />
  </sodipodi:namedview>
  <defs
     id="defs2">
    <linearGradient
       id="Gradient1"
       gradientUnits="userSpaceOnUse"
       x1="865.12903"
       y1="528.89203"
       x2="819.56299"
       y2="498.15302"
       gradientTransform="translate(-12.335285,-10.278777)">
      <stop
         class="stop0"
         offset="0"
         stop-opacity="0.968627"
         stop-color="rgb(243,241,244)"
         id="stop1" />
      <stop
         class="stop1"
         offset="1"
         stop-opacity="1"
         stop-color="rgb(255,255,255)"
         id="stop2" />
    </linearGradient>
  </defs>
  <path
     fill="#fefefe"
     d="m 1300.7747,214.27522 c 1.24,-0.126 2.49,-0.229 3.73,-0.311 33.53,-2.19 87.46,4.276 112.91,28.116 69.73,65.329 -8.84,179.417 -56.16,231.93 -8.34,0.438 -14.33,0.188 -22.7,-0.236 5.47,-8.476 15.66,-20.704 22.04,-29.114 11.25,-14.778 21.47,-30.32 30.56,-46.514 15.75,-28.285 31.24,-64.924 21.79,-97.723 -5.35,-18.564 -19.68,-36.261 -36.87,-44.835 -59.74,-29.805 -137.29,-11.115 -196.98,6.618 12.64,8.682 23.47,16.348 35.69,25.601 128.77,-25.225 210.68,35.27 126.7,158.275 -6.6,9.66 -12.25,19.219 -19.79,28.473 -26.36,1.672 -28.41,1.72 -48.5,19.782 -19.35,-13.714 -13.08,-15.625 -40.45,-19.693 -5.99,-12.539 -9.1,-22.151 -16.5,-35.703 -23,-42.605 -59.14,-76.642 -103.05,-97.045 -61.25,-28.407 -119.96998,-31.55 -183.35398,-8.34 -46.349,16.976 -85.969,48.48 -112.95,89.814 -11.75,18.25 -17.449,31.263 -26.357,50.473 -9.023,1.104 -21.201,0.721 -30.265,-0.029 2.334,-13.729 7.495,-25.208 13.304,-37.586 60.658,-129.272 218.072,-183.803 347.65198,-126.592 17.36,7.667 33.31,16.289 50.52,24.556 -13.57,-13.601 -26.6,-20.177 -43.45,-28.641 -166.73698,-83.732 -363.24698,30.477 -388.10898,211.34 -2.708,19.699 -1.857,40.772 -1.819,61.046 l -12.368,0.022 c -1.918,-64.079 10.267,-127.157 45.067,-181.712 39.949,-63.496 103.624,-108.385 176.851,-124.677 95.20798,-21.764 194.93798,6.734 264.27798,75.521 23.01,22.853 31.18,45.72 62.59,56.478 -53.34,-99.878 -154.78,-156.865 -267.43,-156.502 -78.64198,0.406 -153.85098,32.261 -208.85998,88.462 -49.608,51.107 -80.645,117.374 -88.148,188.203 -1.446,14.891 -0.721,38.873 -0.634,54.176 -7.34,-0.062 -12.691,-0.084 -19.997,-0.972 2.903,-3.395 6.475,-6.828 9.651,-10.022 0.27,-7.817 -0.354,-12.709 -1.235,-20.498 -9.094,6.493 -34.745,29.364 -41.247,30.591 l -1.204,-1.186 c -1.746,-6.513 -0.694,-16.341 0.331,-22.966 5.778,-7.105 39.335,-36.195 47.324,-40.751 3.79,-13.905 4.997,-28.991 8.486,-42.953 27.249,-109.04 118.04,-199.651 228.417,-223.256 68.38598,-14.626 140.71598,-8.081 204.45598,20.757 14.12,6.387 30.4,17.719 43.43,26.234 5.55,-1.63 13.31,-3.16 19.13,-4.467 -12.05,-6.632 -24.63,-16.471 -37.39,-23.339 -38.09,-20.494 -81.16,-35.624 -124.21,-39.791 -146.25898,-14.893 -284.34398,70.104 -336.92998,207.392 -5.411,13.832 -9.283,29.075 -13.25,43.39 -1.798,6.491 -2.064,22.415 -7.163,26.62 l -1.169,-1.396 c -3.347,-24.906 15.936,-70.243 26.041,-93.278 62.674,-142.859 231.033,-219.292 380.66098,-179.55 18.83,5.002 36.13,12.48 54.3,19.246 13.58,-3.227 30.27,-10.06 44.38,-13.859 33.56,-9.04 73.72,-18.195 108.25,-19.579 z m 12.55,190.356 c 12.76,-26.399 2.35,-57.453 -24.06,-69.741 -16.83,-7.824 -42.37,-11.252 -60.61,-10.031 13.01,16.601 27.89,31.601 40.04,48.904 6.96,9.918 11.51,21.38 18.51,31.136 4.84,6.739 18.76,5.456 24.68,0.99 0.48,-0.419 0.96,-0.839 1.44,-1.258 z"
     id="path2" />
  <path
     fill="#fefefe"
     d="m 1261.5247,592.76222 c 1.6,1.993 -0.15,16.289 -0.44,19.637 -21.77,18.366 -48.92,34.829 -73.42,50.355 -36.15,22.902 -77.04,49.036 -115.97,67.792 -90.96498,43.828 -197.92898,90.172 -299.56898,97.806 -31.771,1.474 -77.759,-1.994 -102.106,-25.141 -45.571,-43.325 4.798,-120.178 37.267,-154.717 16.581,-0.49 38.873,1.221 54.737,-0.373 2.925,-2.181 2.35,-2.574 3.918,-6.553 5.007,-2.893 14.204,5.344 19.772,6.684 3.122,0.751 8.062,0.891 11.33,1.03 18.855,34.009 31.015,55.926 61.275,81.994 13.9,2.123 25.085,-0.121 38.488,-3.872 -11.224,-7.62 -19.064,-13.288 -29.136,-22.34 -15.184,-14.602 -33.148,-37.743 -42.043,-56.875 6.893,-0.359 13.189,-0.213 20.079,-0.084 17.563,34.494 41.851,52.217 72.896,72.767 41.797,-10.004 103.62198,-42.894 141.60198,-63.641 6.13,-3.35 21.18,-14.073 27.37,-14.552 0.76,2.335 0.99,2.554 2.42,4.595 2.94,1.576 55.77,0.79 63.8,0.811 -38.57,26.841 -81.44,48.724 -123.9,68.791 -17.61,8.327 -37.89998,15.281 -54.84998,24.12 12.7,2.46 15.81,2.769 27.62998,-2.521 52.99,-23.469 104.22,-50.731 153.29,-81.573 15.15,-9.671 25.46,-12.882 32.03,-30.173 -9.11,5.025 -14.95,11.599 -24.93,16.865 -1.15,-14.374 -1.04,-26.24 -0.87,-40.571 18.83,-0.26 40.95,-0.431 59.52,0.527 -7.62,5.493 -13.28,8.081 -14.34,18.147 l 1.18,0.941 c 6.36,-3.011 13,-10.922 21.57,-15.595 10.28,-5.605 22.27,-8.594 31.4,-14.281 z m -354.83798,169.842 c 5.061,3.025 8.561,5.5 14.375,6.855 11.491,-3.869 30.231,-9.404 40.779,-13.948 -4.233,-1.273 -9.753,-3.18 -14.036,-3.515 -7.008,1.111 -34.511,8.107 -41.118,10.608 z m -60.459,26.273 0.926,-0.662 c -20.701,-13.984 -18.781,-13.832 -44.115,-15.576 7.547,6.381 15.506,14.749 23.284,20.028 6.286,-1.136 13.802,-2.315 19.905,-3.79 z m -54.886,6.539 c 7.36,-0.397 13.237,-0.521 20.459,-2.094 -6.479,-5.132 -22.607,-21.529 -25.116,-22.983 -20.008,-11.597 -40.639,-12.239 -47.882,-39.651 -4.239,-16.041 -4.374,-30.287 -13.714,-45.222 -44.623,72.687 -13.076,110.347 66.253,109.95 z m 75.614,-9.687 10.055,-3.656 c -5.295,-3.399 -14.03,-9.757 -20.135,-10.118 -4.134,0.584 -5.304,-0.06 -7.509,2.454 1.419,4.082 13.612,10.278 17.589,11.32 z"
     id="path3" />
  <path
     fill="#fefefe"
     d="m 668.19472,647.83522 c 9.215,0.37 14.586,0.283 23.78,-0.419 -32.501,37.047 -69.006,81.464 -77.566,131.396 -3.593,20.956 -2.019,42.601 10.81,60.391 16.665,23.11 43.489,32.633 70.596,37.073 106.408,17.432 286.355,-57.375 378.86998,-106.494 66.84,-36.16 131.3,-76.538 193.01,-120.891 10.21,-0.423 23.08,-0.003 33.48,0.042 l -18.05,13.343 c -118.51,86.577 -248.93,158.684 -389.70098,207.611 -75.658,26.295 -292.832,84.145 -309.237,-48.48 -7.04,-56.915 47.078,-131.067 84.008,-173.572 z"
     id="path6" />
  <path
     fill="#fefefe"
     d="m 1414.8747,122.17522 c 68.76,-2.286 181.67,14.237 195.15,104.764 1.87,12.557 0.7,42.471 -2.62,54.957 -19,71.498 -69.82,131.529 -117.74,185.935 -9.85,11.129 -17.27,10.888 -28.64,18.499 -2.66,1.779 -8.33,8.797 -10.56,11.514 -3.44,-3.192 -10.64,-9.245 -12.15,-13.197 1.39,-6.682 19.09,-24.944 24.33,-30.545 41.3,-50.174 93,-113.282 100.7,-178.748 13.79,-117.277 -117.32,-143.414 -206.91,-137.594 -7.93,0.515 -50.76,5.216 -53.86,1.401 3.32,-2.346 12.88,-3.629 17.32,-4.625 32.08,-7.19 62.24,-10.724 94.98,-12.361 z"
     id="path7" />
  <path
     fill="#fefefe"
     d="m 587.20372,627.18722 c 5.718,0.296 12.811,6.513 7.54,12.237 -53.905,58.546 -124.438,135.938 -129.668,218.831 -8.16,129.337 161.67,139.406 254.449,131.195 13.121,-1.239 26.19,-2.982 39.177,-5.224 4.361,-0.726 13.91,-3.344 16.759,-3.202 -1.686,2.495 -35.179,9.277 -40.29,10.387 -15.928,2.95 -32.322,6.35 -48.226,8.93998 -70.21,11.47 -165.514,8.11 -224.617,-35.30298 -23.345,-16.829 -38.922,-42.357 -43.212,-70.814 -12.754,-86.417 65.484,-182.631 124.049,-238.879 17.839,-17.134 23.808,-0.981 44.039,-28.168 z"
     id="path8" />
  <path
     fill="#fefefe"
     d="m 1309.8047,493.77022 c 18.63,-2.51 44.08,0.728 63.42,-0.409 12.21,-0.718 28.03,-0.75 40.16,0.67 8.36,0.98 22.78,14.134 24.24,22.968 2.23,16.933 1.13,35.626 0.93,52.804 -0.29,19.652 -0.15,39.307 0.42,58.952 -11.46,-0.1 -22.93,-0.12 -34.4,-0.059 -0.86,-11.38 -0.76,-21.473 -0.71,-32.84 0.01,-2.772 0.38,-4.886 -1.09,-7.101 -8.5,-1.045 -21.69,-0.49 -30.71,-0.433 -18.29,0.183 -36.59,0.227 -54.89,0.13 -0.66,13.32 -0.61,27.609 -0.74,41.032 -11.28,-0.021 -22.57,0.026 -33.86,0.142 0.07,-21.581 -5.12,-104.071 3.16,-118.706 5.2,-9.195 14.1,-14.49 24.07,-17.15 z m 6.91,62.974 83.2,0.039 2.96,-0.32 c 2.22,-4.885 2.12,-25.733 -3,-29.618 -8.06,-2.429 -68.03,-1.679 -78.93,-1.052 -7.58,6.882 -4.78,21.439 -4.23,30.951 z"
     id="path9" />
  <path
     fill="#fefefe"
     d="m 957.23472,493.74922 c 13.828,-0.994 33,-0.445 47.16998,-0.422 l 81.23,0.192 1.16,31.641 c -29.25,-0.568 -58.7,0.098 -87.96998,-0.262 -9.86,-0.121 -20.147,-0.203 -29.939,0.809 -1.173,7.875 -1.3,11.287 -0.154,19.159 25.843,3.948 83.48298,-5.151 102.37298,5.541 23.09,13.072 25.54,69.232 -13.13,79.078 -39.71,1.156 -85.98298,0.037 -126.40098,0.163 -0.428,-11.78 -0.424,-20.237 -0.01,-31.998 25.568,-0.941 52.915,0.314 78.66098,-0.281 11.53,-0.15 23.06,0.285 34.56,-0.675 9.69,-0.809 6.43,-12.862 5.52,-19.554 -31.11,-5.155 -70.47998,3.963 -101.28398,-4.537 -22.174,-6.118 -19.884,-45.986 -13.117,-62.418 3.14,-7.623 13.281,-13.455 21.331,-16.436 z"
     id="path10" />
  <path
     fill="#fefefe"
     d="m 235.64472,493.75022 c 11.665,-0.205 23.334,-0.155 34.997,0.151 4.952,3.792 16.794,15.468 21.898,20.215 l 46.941,43.56 c 7.765,7.141 16.647,15.835 25.256,21.561 -0.814,-26.621 -0.953,-58.559 0.023,-85.145 10.746,-0.544 22.911,-0.232 33.771,-0.185 0.374,10.623 0.583,132.379 -0.527,134.371 l -3.089,0.488 -32.083,-0.112 c -10.291,-6.993 -22.387,-20.074 -31.735,-28.952 -20.32,-19.097 -40.471,-38.372 -60.452,-57.823 0.338,4.298 0.379,9.361 0.292,13.691 -0.485,24.35 1.222,49.685 -0.102,73.941 -11.068,0.371 -24.486,-0.023 -35.736,-0.087 -0.347,-6.8 -0.303,-14.338 -0.06,-21.157 1.35,-37.834 -1.113,-76.827 0.606,-114.517 z"
     id="path11" />
  <path
     fill="#fefefe"
     d="m 1490.2947,494.05522 c 13.08,-0.901 32.12,-0.328 45.46,-0.287 26.39,0.146 52.79,0.143 79.19,-0.01 -0.02,10.708 -0.1,21.416 -0.26,32.123 -15.23,-0.152 -110.15,-2.707 -116.74,2.136 -1.43,1.048 -1.87,3.648 -2.12,5.353 -1.15,7.837 -1.54,56.866 2.01,61.615 7.9,3.349 49.88,2.074 61.08,2.034 18.87,0.2 37.72,-0.319 56.62,0.301 0.07,10.679 -0.04,21.358 -0.36,32.033 -41.45,-2.021 -83.88,0.877 -125.34,-0.915 -11.18,-0.483 -27.38,-10.847 -28.46,-22.134 -1.94,-19.846 -0.52,-40.306 -1.08,-60.19 -0.69,-24.983 -1.32,-47.889 30,-52.059 z"
     id="path13" />
  <path
     fill="#fefefe"
     d="m 422.82372,493.14822 c 11.024,-0.02 22.047,0.045 33.07,0.197 2.799,23.275 -3.419,75.033 2.221,100.188 0.048,1.377 4.203,2.8 5.221,2.792 12.229,-0.092 70.888,3.071 78.703,-1.858 4.585,-8.149 2.438,-85.009 2.76,-100.845 10.441,-0.463 23.576,-0.169 34.219,-0.206 0.395,9.926 -0.144,23.553 -0.248,33.753 -0.105,19.79 4.124,68.168 -3.237,83.859 -3.143,6.699 -9.984,14.169 -17.121,16.611 -9.712,3.322 -96.493,2.426 -109.747,0.972 -3.297,-0.362 -6.461,-1.479 -9.445,-2.903 -7.062,-3.371 -13.56,-9.745 -16.133,-17.242 -1.461,-4.254 -1.927,-8.825 -2.135,-13.295 -0.475,-10.224 -0.555,-97.175 1.872,-102.023 z"
     id="path14" />
  <path
     fill="#fefefe"
     d="m 1108.5147,493.70022 81.9,-0.127 c 16.62,-0.004 47.8,-3.018 60.8,7.99 13.62,11.533 9.91,33.615 10.64,49.942 1.64,36.643 -38.37,32.153 -63,32.157 l -56.11,0.091 c -0.74,14.217 -0.06,30.5 -0.19,45.028 -11.31,0.125 -22.62,0.058 -33.93,-0.2 -0.98,-25.296 -1.19,-50.617 -0.64,-75.926 13.99,-0.118 112.78,2.049 117.64,-2.492 2.69,-2.521 2.41,-6.353 2.48,-9.815 0.1,-4.717 0.36,-10.305 -3.14,-13.934 -7.18,-2.841 -102.19,-1.512 -115.94,-1.54 -0.75,-11.228 -0.69,-20.004 -0.51,-31.174 z"
     id="path15" />
  <path
     fill="#fefefe"
     d="m 1636.8647,546.05422 c 10.21,-0.607 29.92,0.147 40.71,0.194 28.05,0.181 56.11,0.201 84.16,0.059 0.4,9.082 0.04,19.787 -0.05,28.995 l -89.14,0.408 c -0.54,5.834 -1.88,14.503 0.66,19.63 6.16,2.68 46.49,1.715 55.96,1.692 19.1,-0.012 39.55,-0.362 58.54,0.36 0.84,9.332 0.19,22.569 -0.02,32.219 -28.11,-0.561 -56.22,-0.795 -84.34,-0.704 -12.67,0.037 -27.33,0.848 -39.65,0.113 -33.94,-2.027 -29.98,-59.344 -26.83,-82.966 z"
     id="path16" />
  <path
     fill="#fefefe"
     d="m 600.60572,493.60022 c 9.991,-0.609 23.609,-0.181 33.863,-0.159 0.917,30.105 -1.28,60.637 -0.861,90.776 0.262,18.822 28.091,12.834 41.827,12.74 24.448,-0.184 48.897,-0.033 73.341,0.454 l -0.331,31.677 c -1.617,0.389 -2.705,0.489 -4.363,0.483 -34.943,-0.127 -69.941,0.014 -104.878,0.239 -44.367,0.287 -38.521,-31.814 -38.545,-63.506 z"
     id="path17" />
  <path
     fill="#fefefe"
     d="m 765.81572,493.39922 c 11.545,-0.087 23.09,-0.036 34.634,0.151 0.341,17.869 -3.197,87.258 0.37,99.901 5.077,5.149 36.454,3.72 45.128,3.76 l 67.544,0.361 c 0.106,9.754 0.583,22.382 -0.109,31.892 -0.531,0.023 -1.062,0.037 -1.593,0.043 -39.119,0.562 -79.009,-0.052 -118.102,-0.725 -32.91,-0.567 -27.52,-42.049 -27.638,-64.752 z"
     id="path18" />
  <path
     fill="#fefefe"
     d="m 834.18972,445.79322 c 14.235,-23.691 28.076,-41.847 49.903,-58.539 66.137,-50.58 162.00198,-56.898 233.66198,-14.272 33.27,19.787 75.67,63.572 86.3,101.011 -4.1,0.21 -16.18,1.593 -18.45,-1.733 -8.65,-12.702 -14.78,-25.432 -24.48,-37.762 -34.3,-43.552 -89.54,-71.352 -144.96,-72.62 -51.42698,-0.755 -101.03798,19.009 -137.85998,54.921 -9.826,9.442 -16.661,18.774 -24.679,29.738 -5.885,-1.197 -13.316,-0.809 -19.436,-0.744 z"
     id="path19" />
  <path
     fill="#fefefe"
     d="m 1636.7347,493.83922 c 16.04,-0.535 34.96,-0.044 51.19,-0.035 l 99.62,0.119 c 0.15,10.685 0.13,21.371 -0.05,32.055 -50.16,-0.625 -100.76,0.316 -150.83,-0.681 -0.36,-10.203 -0.51,-21.319 0.07,-31.458 z"
     id="path22" />
  <path
     fill="#fefefe"
     d="m 1303.3147,655.56922 c 2.92,8.162 -11.42,33.586 -15.34,41.467 -62.96,126.549 -197.52,188.036 -335.09198,162.805 -2.365,-0.96 -1.569,-0.172 -2.685,-2.186 5.693,-7.059 28.642,-2.121 37.567,-1.392 119.16998,9.722 233.27998,-54.045 290.07998,-158.857 8.78,-16.196 10.99,-28.902 25.47,-41.837 z"
     id="path23" />
  <path
     fill="#fefefe"
     d="m 1266.6247,683.66722 c 0.12,8.732 -34.1,53.403 -41.01,61.35 -7.58,8.681 -15.67,16.908 -24.22,24.637 -55.83,50.679 -130.92,73.647 -205.60998,69.927 l -0.84,-0.653 c 1.34,-2.647 17.09998,-8.758 19.94998,-8.849 78.43,-2.509 153.2,-37.149 204.54,-97.093 16.21,-18.932 21.99,-34.615 47.19,-49.319 z"
     id="path24" />
  <path
     fill="#fefefe"
     d="m 1498.4647,282.27922 c 10.39,9.103 -0.21,43.211 -3.5,55.947 -12.43,48.035 -48.91,97.658 -81.43,134.601 -7.71,0.33 -15.41,0.044 -23.12,-0.134 l -1.55,-0.156 c -0.85,-1.329 -0.74,-2.278 0.53,-3.613 37.74,-39.72 72.68,-82.368 94.82,-132.96 3.84,-8.756 8.32,-17.569 10.89,-26.936 2.34,-8.516 1.72,-17.213 3.2,-25.87 z"
     id="path25" />
  <path
     fill="#fefefe"
     d="m 621.04172,647.91822 c 8.407,-0.074 15.752,0.207 24.155,0.639 -46.151,46.669 -106.382,114.605 -113.406,181.941 -0.222,4.25 0.449,12.107 -3.808,14.478 -2.817,-5.581 -2.279,-20.269 -1.835,-26.761 3.846,-56.299 35.906,-101.863 71.022,-143.603 5.407,-6.427 18.084,-21.74 23.872,-26.694 z"
     id="path26" />
  <path
     fill="#fefefe"
     d="m 1222.5747,711.71122 0.68,0.734 c 0.05,4.089 -5.84,10.217 -8.54,13.394 -42.3,49.783 -107,86.982 -172.79,92.141 l -0.62,-1.201 c 5.77,-3.983 14.72,-7.722 21.34,-11.113 13.51,-7.012 26.95,-14.144 40.34,-21.393 41.17,-21.965 81.1,-46.19 119.59,-72.562 z"
     id="path27" />
  <path
     fill="#fefefe"
     d="m 1325.8647,647.35522 1.26,1.706 c 0.53,7.868 -9.84,30.633 -13.26,38.494 -27.29,62.991 -73.51,115.93 -132.24,151.476 -83.96,51.229 -170.11,56.371 -263.58698,33.849 l -2.52,-0.844 -0.245,-1.452 c 7.475,-5.829 30.517,1.89 40.714,3.744 9.006,1.688 18.088,2.939 27.215,3.748 129.54298,11.941 253.66298,-54.733 315.24298,-169.328 4.08,-7.471 8.21,-17.767 12.04,-24.677 4.35,-7.853 10.1,-32.844 15.38,-36.716 z"
     id="path28" />
  <path
     fill="#fefefe"
     d="m 1177.2547,677.59922 c 1.04,0.749 0.62,0.263 0.99,1.702 -38.53,48.855 -90.39,74.925 -151.45,82.954 l -0.73,-1.101 c 4,-3.045 14.79,-7.71 20.04,-10.366 13.98,-7.125 27.92,-14.339 41.81,-21.643 28.49,-15.026 61.57,-34.837 89.34,-51.546 z"
     id="path29" />
  <path
     fill="#fefefe"
     d="m 967.75472,784.84222 c 2.769,-0.156 14.81,1.386 18.652,1.783 11.788,1.216 21.97798,1.933 33.87798,2.145 -16.16,7.045 -31.62998,15.098 -48.03698,21.962 -3.624,1.537 -8.422,3.085 -12.213,4.427 -13.171,-2.882 -26.115,-6.719 -38.729,-11.478 14.507,-6.517 31.513,-13.712 46.449,-18.839 z"
     id="path30" />
  <path
     fill="url(#Gradient1)"
     d="m 834.18972,445.79322 c 6.12,-0.065 13.551,-0.453 19.436,0.744 -19.16,29.408 -31.927,58.73 -32.339,94.442 -3.293,5.308 1.666,23.61 -2.195,28.604 -2.432,-24.598 -0.86,-71.233 2.503,-96.772 0.937,-7.112 8.752,-20.473 12.595,-27.018 z"
     id="path31"
     style="fill:url(#Gradient1)" />
  <path
     fill="#fefefe"
     d="m 1261.5947,619.78422 c 1.51,1.937 1.98,12.126 1.58,14.151 -3.21,16.265 -36.23,34.3 -50.15,43.927 l -1.01,-1.488 c 9.08,-11.153 11.06,-19.609 15,-33.101 10.89,-6.465 23.94,-16.032 34.58,-23.489 z"
     id="path32" />
  <path
     fill="#fefefe"
     d="m 666.49872,835.83622 c 11.275,-0.444 20.933,1.714 31.934,3.762 1.428,5.071 5.979,18.092 4.158,22.265 -0.829,-0.022 -1.656,-0.075 -2.481,-0.161 -14.646,-1.485 -36.031,-7.465 -33.611,-25.866 z"
     id="path33" />
  <path
     fill="#fefefe"
     d="m 1318.0647,252.69422 c 0.84,0.041 1.68,0.103 2.52,0.186 8.88,0.874 23.86,3.717 29.83,10.742 4.04,4.764 -1.03,9.957 -5.31,12.322 -12.45,0.555 -45.94,-5.753 -27.04,-23.25 z"
     id="path34" />
  <path
     fill="#fefefe"
     d="m 1378.1547,282.52022 c 14.64,-0.184 18.97,14.438 23.45,26.333 1.07,2.833 -0.48,4.668 -1.82,7.108 -21.92,7.166 -25.71,-18.924 -21.63,-33.441 z"
     id="path38" />
  <path
     fill="#fefefe"
     d="m 632.58872,795.04222 c 3.516,-0.468 6.573,-1.217 9.875,0.011 0.36,0.788 3.252,31.6 2.953,32.934 -2.433,2.507 -1.997,1.734 -6.444,2.053 -9.184,-5.796 -17.568,-19.611 -14.282,-30.614 1.918,-2.863 4.489,-3.233 7.898,-4.384 z"
     id="path39" />
  <path
     fill="#fefefe"
     d="m 900.56572,808.95122 c 6.615,-1.069 42.508,10.207 43.931,12.572 -2.59,2.283 -5.279,2.824 -8.601,3.905 -15.873,3.162 -31.154,-6.519 -46.958,-12.636 z"
     id="path41" />
  <path
     fill="#fefefe"
     d="m 859.73472,819.63022 c 7.754,0.077 36.349,11.28 39.825,17.345 l -2.738,2.175 c -8.265,0.985 -40.364,-9.12 -39.621,-17.583 z"
     id="path42" />
  <path
     fill="#fefefe"
     d="m 1528.7547,273.68622 c 1.88,0.355 3.58,0.741 5.33,1.566 3.09,1.489 5.46,4.161 6.56,7.414 2.63,7.721 -2.8,11.426 -9.11,13.325 -15.57,-3.715 -16.36,-17.268 -2.78,-22.305 z"
     id="path43" />
  <path
     fill="#fefefe"
     d="m 498.85272,857.99422 c 3.697,-1.216 7.763,-0.343 10.635,2.285 2.872,2.627 4.102,6.6 3.218,10.391 -0.883,3.791 -3.744,6.809 -7.482,7.896 -5.641,1.639 -11.555,-1.544 -13.293,-7.156 -1.738,-5.611 1.342,-11.58 6.922,-13.416 z"
     id="path44" />
  <path
     fill="#fefefe"
     d="m 1357.3247,622.88222 c 14.16,-0.732 24.07,7.087 12.3,19.605 -15.09,5.061 -19.46,-8.254 -12.3,-19.605 z"
     id="path45" />
  <path
     fill="#fefefe"
     d="m 664.03772,479.08022 c 5.351,-0.061 9.806,4.094 10.118,9.436 0.313,5.343 -3.628,9.988 -8.95,10.551 -3.673,0.388 -7.261,-1.275 -9.339,-4.327 -2.077,-3.053 -2.308,-7.001 -0.6,-10.275 1.708,-3.274 5.078,-5.343 8.771,-5.385 z"
     id="path46" />
  <path
     fill="#fefefe"
     d="m 1289.6347,182.30722 c 4.36,-2.448 9.89,-0.909 12.36,3.444 2.47,4.352 0.96,9.883 -3.38,12.376 -4.38,2.511 -9.96,0.987 -12.44,-3.398 -2.49,-4.384 -0.94,-9.957 3.46,-12.422 z"
     id="path47" />
  <path
     fill="#fefefe"
     d="m 1485.8847,178.26822 c 3,-0.994 6.29,-0.298 8.63,1.822 2.34,2.12 3.35,5.334 2.65,8.409 -0.7,3.075 -3.01,5.534 -6.03,6.434 -4.57,1.36 -9.39,-1.2 -10.82,-5.751 -1.44,-4.551 1.05,-9.41 5.57,-10.914 z"
     id="path48" />
  <path
     fill="#fefefe"
     d="m 1515.6447,454.43322 c 7,1.087 11.34,3.501 10.65,11.153 -1.87,3.549 -2.85,3.864 -6.32,5.807 -14.06,-0.17 -15.49,-10.251 -4.33,-16.96 z"
     id="path49" />
  <path
     fill="#fefefe"
     d="m 509.26372,648.90122 c 2.914,-1.101 6.194,-0.549 8.587,1.445 2.392,1.995 3.525,5.122 2.966,8.186 -0.56,3.064 -2.725,5.59 -5.668,6.61 -4.463,1.548 -9.342,-0.777 -10.951,-5.218 -1.609,-4.442 0.648,-9.352 5.066,-11.023 z"
     id="path50" />
  <path
     fill="#fefefe"
     d="m 535.59572,925.25922 c 4.041,-2.232 9.124,-0.844 11.47,3.132 2.346,3.976 1.103,9.097 -2.805,11.555 -2.628,1.653 -5.948,1.747 -8.666,0.246 -2.717,-1.502 -4.405,-4.362 -4.405,-7.467 0,-3.105 1.688,-5.964 4.406,-7.466 z"
     id="path51" />
  <path
     fill="#fefefe"
     d="m 900.26372,936.49322 c 11.572,0.172 15.03,10.555 6.05,17.797 -12.767,-1.13 -13.929,-9.351 -6.05,-17.797 z"
     id="path52" />
  <path
     fill="#fefefe"
     d="m 795.74872,912.25822 c 4.088,-2.039 9.054,-0.381 11.098,3.704 2.043,4.086 0.391,9.054 -3.692,11.102 -4.09,2.051 -9.068,0.396 -11.114,-3.696 -2.047,-4.092 -0.386,-9.068 3.708,-11.11 z"
     id="path53" />
  <path
     fill="#fefefe"
     d="m 486.61472,671.70522 c 6.178,0.007 11.771,-0.472 12.81,6.761 -1.161,3.811 -2.882,4.9 -5.892,7.528 -4.004,1.159 -6.507,1.04 -9.986,-1.288 -3.768,-5.905 -1.72,-8.794 3.068,-13.001 z"
     id="path54" />
  <path
     fill="#fefefe"
     d="m 1559.4447,400.88722 c 1.4,-0.136 2.8,-0.212 4.21,-0.228 9.84,-0.087 11.15,7.902 3.79,14.135 -6.17,0.05 -10.46,-0.127 -12.12,-6.942 0.77,-3.901 1.37,-4.343 4.12,-6.965 z"
     id="path55" />
  <path
     fill="#fefefe"
     d="m 1536.9647,431.68022 c 2.67,-1.041 5.68,-0.549 7.88,1.285 2.19,1.834 3.21,4.717 2.66,7.522 -0.56,2.805 -2.6,5.085 -5.32,5.948 -4.03,1.276 -8.34,-0.872 -9.75,-4.854 -1.4,-3.982 0.6,-8.363 4.53,-9.901 z"
     id="path56" />
  <path
     fill="#fefefe"
     d="m 1245.1847,192.14922 c 2.4,-1.588 5.48,-1.726 8.01,-0.357 2.53,1.369 4.11,4.021 4.09,6.898 -0.02,2.878 -1.61,5.513 -4.16,6.854 -3.67,1.937 -8.22,0.651 -10.34,-2.922 -2.12,-3.574 -1.06,-8.18 2.4,-10.473 z"
     id="path57" />
  <path
     fill="#fefefe"
     d="m 1127.0347,183.20422 c 2.68,-0.908 5.64,-0.261 7.69,1.681 2.06,1.942 2.87,4.862 2.11,7.586 -0.75,2.725 -2.95,4.809 -5.71,5.416 -3.96,0.868 -7.91,-1.506 -8.99,-5.408 -1.09,-3.902 1.06,-7.974 4.9,-9.275 z"
     id="path58" />
  <path
     fill="#fefefe"
     d="m 725.49772,840.22022 c 3.863,-1.692 8.366,0.073 10.05,3.939 1.684,3.867 -0.09,8.366 -3.96,10.042 -3.859,1.671 -8.342,-0.097 -10.021,-3.952 -1.679,-3.855 0.079,-8.341 3.931,-10.029 z"
     id="path59" />
  <path
     fill="#fefefe"
     d="m 1318.9747,179.74722 c 6.19,-0.647 10.68,-1.281 14.08,4.738 0.43,3.674 -0.39,4.887 -1.89,8.168 -10.94,3.008 -14.83,-2.729 -12.19,-12.906 z"
     id="path60" />
  <path
     fill="#fefefe"
     d="m 750.66572,921.73422 c 6.445,-0.044 10.199,0.695 10.741,7.871 -1.258,3.614 -2.444,4.089 -5.555,6.13 -5.935,-0.279 -10.05,-0.731 -10.597,-7.472 1.326,-3.701 2.376,-4.231 5.411,-6.529 z"
     id="path61" />
  <path
     fill="#fefefe"
     d="m 1226.1747,256.46422 c 10.67,1.314 14.96,8.437 5.98,15.851 -9.39,-2.277 -15.17,-8.36 -5.98,-15.851 z"
     id="path62" />
  <path
     fill="#fefefe"
     d="m 1351.2747,178.78022 c 11.54,2.086 12.95,9.318 2.47,14.523 -10.53,-2.483 -13.02,-10.426 -2.47,-14.523 z"
     id="path63" />
  <path
     fill="#fefefe"
     d="m 687.57372,929.67122 c 6.186,0.487 10.553,1.241 10.86,8.415 -2.138,3.786 -0.981,2.446 -5.053,4.954 -5.795,-0.405 -10.953,-0.802 -11.535,-7.656 1.255,-3.312 2.772,-3.889 5.728,-5.713 z"
     id="path64" />
  <path
     fill="#fefefe"
     d="m 1269.6047,141.13322 c 3.87,-1.259 8.03,0.868 9.27,4.743 1.25,3.876 -0.89,8.026 -4.77,9.256 -3.86,1.224 -7.99,-0.905 -9.23,-4.761 -1.23,-3.855 0.88,-7.986 4.73,-9.238 z"
     id="path65" />
  <path
     fill="#fefefe"
     d="m 440.63672,730.20822 c 2.349,-1.336 5.243,-1.272 7.531,0.167 2.287,1.439 3.598,4.02 3.409,6.717 -0.188,2.696 -1.844,5.07 -4.31,6.177 -3.57,1.604 -7.77,0.121 -9.542,-3.369 -1.772,-3.49 -0.49,-7.756 2.912,-9.692 z"
     id="path66" />
  <path
     fill="#fefefe"
     d="m 1468.4347,307.50522 c 10.31,1.363 14.27,8.398 4.27,14.013 -6.33,-0.474 -9.55,-0.951 -9.72,-8.277 2.3,-4.459 1.16,-3.012 5.45,-5.736 z"
     id="path67" />
  <path
     fill="#fefefe"
     d="m 552.46772,820.18722 c 2.5,-1.09 5.401,-0.68 7.501,1.061 2.1,1.741 3.041,4.516 2.433,7.175 -0.608,2.659 -2.662,4.749 -5.31,5.404 -3.645,0.902 -7.374,-1.138 -8.58,-4.695 -1.206,-3.556 0.514,-7.444 3.956,-8.945 z"
     id="path68" />
  <path
     fill="#fefefe"
     d="m 803.93372,845.60222 c 5.931,-0.542 10.138,-1.246 12.673,4.907 -0.366,3.951 -0.975,4.589 -3.167,7.835 -5.638,0.939 -8.069,0.395 -11.137,-4.246 -0.706,-3.957 -0.037,-4.859 1.631,-8.496 z"
     id="path69" />
  <path
     fill="#fefefe"
     d="m 1284.9847,260.03922 c 3.85,0.291 6.74,3.61 6.52,7.456 -0.23,3.847 -3.5,6.799 -7.35,6.633 -2.55,-0.11 -4.84,-1.584 -5.99,-3.857 -1.16,-2.273 -1,-4.991 0.42,-7.111 1.41,-2.121 3.86,-3.313 6.4,-3.121 z"
     id="path70" />
  <path
     fill="#fefefe"
     d="m 617.49072,919.43122 c 5.703,-0.293 9.143,-0.074 10.873,5.648 -0.657,3.802 -1.702,4.546 -4.303,7.245 -5.636,-0.274 -9.349,-0.827 -11.017,-6.485 0.47,-3.247 2.052,-4.23 4.447,-6.408 z"
     id="path71" />
  <path
     fill="#fefefe"
     d="m 1581.2347,374.76422 c 5.73,-0.752 10.4,-0.91 12.65,5.356 -0.88,4.032 -0.55,2.8 -3.45,6.113 -5.11,1.089 -8.5,1.22 -11.4,-3.408 -0.46,-3.693 0.48,-4.859 2.2,-8.061 z"
     id="path72" />
  <path
     fill="#fefefe"
     d="m 1418.6847,196.16922 c 2.21,-1.223 4.91,-1.147 7.05,0.198 2.14,1.345 3.37,3.746 3.23,6.267 -0.15,2.521 -1.66,4.762 -3.94,5.851 -3.38,1.614 -7.43,0.25 -9.14,-3.081 -1.72,-3.33 -0.48,-7.421 2.8,-9.235 z"
     id="path73" />
  <path
     fill="#fefefe"
     d="m 459.93372,703.93122 c 5.439,0.296 8.554,0.315 11.408,5.208 0.216,3.471 -0.977,4.65 -2.916,7.462 -6.375,0.733 -9.744,0.187 -11.62,-6.75 0.666,-3.215 0.701,-3.774 3.128,-5.92 z"
     id="path74" />
  <path
     fill="#fefefe"
     d="m 662.88172,929.71222 c 3.328,-1.652 7.367,-0.351 9.106,2.933 1.739,3.284 0.544,7.356 -2.693,9.18 -2.171,1.223 -4.835,1.172 -6.957,-0.133 -2.123,-1.306 -3.37,-3.661 -3.257,-6.15 0.113,-2.49 1.568,-4.722 3.801,-5.83 z"
     id="path75" />
  <path
     fill="#fefefe"
     d="m 1372.9147,181.63722 c 5.69,-0.002 9.94,0.063 12.15,5.916 -0.61,3.562 -1.21,4.018 -3.66,6.547 -5.81,-0.279 -8.76,-0.318 -11.29,-5.772 0.27,-3.548 0.54,-3.915 2.8,-6.691 z"
     id="path76" />
  <path
     fill="#fefefe"
     d="m 713.54672,929.81822 c 5.29,-0.237 9.128,-1.408 12.64,2.83 0.371,3.32 -0.928,4.674 -2.738,7.429 -5.476,1.096 -9.379,1.631 -12.187,-3.629 0.066,-3.327 0.472,-3.792 2.285,-6.63 z"
     id="path77" />
  <path
     fill="#fefefe"
     d="m 762.41272,849.82222 c 4.851,-0.487 12.033,-1.009 13.716,4.775 -1.495,3.156 -0.87,2.079 -4.36,4.447 -4.586,0.042 -10.769,0.104 -13.349,-4.153 0.945,-3.335 0.881,-2.488 3.993,-5.069 z"
     id="path78" />
  <path
     fill="#fefefe"
     d="m 1522.8747,313.60922 c 5,-0.078 8.49,-0.513 10.61,4.441 -0.39,3.448 -1.4,4.249 -3.63,6.796 -5.18,0.06 -8.28,0.118 -10.33,-4.947 0.38,-3.219 1.23,-3.88 3.35,-6.29 z"
     id="path79" />
  <path
     fill="#fefefe"
     d="m 638.21472,927.25222 c 1.866,-1.471 4.4,-1.769 6.556,-0.772 2.156,0.998 3.569,3.123 3.655,5.497 0.086,2.374 -1.169,4.595 -3.247,5.747 -2.875,1.593 -6.491,0.712 -8.311,-2.025 -1.82,-2.737 -1.234,-6.412 1.347,-8.447 z"
     id="path80" />
  <path
     fill="#fefefe"
     d="m 559.03572,863.67922 c 3.062,-1.33 6.63,-0.04 8.134,2.94 1.505,2.98 0.424,6.617 -2.465,8.291 -2.022,1.173 -4.529,1.129 -6.509,-0.114 -1.981,-1.243 -3.111,-3.48 -2.934,-5.812 0.176,-2.332 1.629,-4.374 3.774,-5.305 z"
     id="path81" />
  <path
     fill="#fefefe"
     d="m 598.28572,910.00422 c 2.875,-1.838 6.69,-1.054 8.606,1.769 1.916,2.823 1.236,6.658 -1.533,8.651 -1.86,1.338 -4.3,1.561 -6.372,0.581 -2.072,-0.98 -3.448,-3.007 -3.593,-5.294 -0.146,-2.287 0.962,-4.473 2.892,-5.707 z"
     id="path82" />
  <path
     fill="#fefefe"
     d="m 1399.3047,187.62222 c 5.13,0.365 7.73,-0.163 9.7,4.922 -0.56,3.306 -1.92,4.18 -4.32,6.435 -5.09,-0.088 -7.17,0.488 -9.26,-4.582 0.5,-3.667 1.35,-4.242 3.88,-6.775 z"
     id="path83" />
  <path
     fill="#fefefe"
     d="m 618.90272,955.16622 c 2.902,-1.734 6.661,-0.784 8.391,2.12 1.731,2.904 0.777,6.662 -2.129,8.389 -2.902,1.724 -6.651,0.772 -8.379,-2.127 -1.728,-2.9 -0.78,-6.651 2.117,-8.382 z"
     id="path84" />
  <path
     fill="#fefefe"
     d="m 1446.7147,446.50622 c 4.45,1.099 5.81,1.308 6.8,5.632 -0.88,3.572 -2.44,4.409 -5.25,6.675 -1.86,-0.456 -3.62,-1.136 -5.42,-1.779 -2.61,-2.971 -2.08,-1.591 -2.33,-5.156 1.51,-3.292 3.05,-3.743 6.2,-5.372 z"
     id="path85" />
  <path
     fill="#fefefe"
     d="m 1435.6347,210.45422 c 2.39,-2.332 6.23,-2.268 8.54,0.142 2.31,2.409 2.22,6.242 -0.21,8.536 -2.4,2.269 -6.18,2.177 -8.47,-0.206 -2.28,-2.383 -2.22,-6.166 0.14,-8.472 z"
     id="path86" />
  <path
     fill="#fefefe"
     d="m 417.54572,762.92522 c 2.072,0.081 4.154,0.34 6.219,0.563 2.897,2.057 2.206,0.964 2.943,3.988 -0.991,3.373 -2.464,4.28 -5.063,6.543 -4.921,-0.611 -7.706,-2.242 -8.313,-7.266 1.884,-3.109 0.821,-2.067 4.214,-3.828 z"
     id="path87" />
  <path
     fill="#fefefe"
     d="m 1601.4247,345.38022 c 4.35,0.235 7.58,0.467 9.8,4.808 -0.01,4.372 0.46,2.645 -2.03,6.512 -4.88,-0.246 -7.65,0.056 -10.25,-4.419 -0.28,-3.105 0.84,-4.314 2.48,-6.901 z"
     id="path88" />
  <path
     fill="#fefefe"
     d="m 1389.3847,333.45822 c 4.98,-0.235 7.19,-0.81 10.08,3.637 0.32,3.251 -0.31,4.037 -1.84,6.88 -5.04,0.014 -6.74,0.269 -10.24,-3.115 -0.26,-4.299 -0.11,-3.158 2,-7.402 z"
     id="path89" />
  <path
     fill="#fefefe"
     d="m 500.16172,793.57322 c 4.687,-0.188 7.194,-0.712 10.38,3.06 -0.238,4.265 -0.317,3.209 -2.805,7.171 -4.747,0.212 -6.364,0.285 -9.46,-3.311 -0.162,-4.245 -0.212,-2.89 1.885,-6.92 z"
     id="path90" />
  <path
     fill="#fefefe"
     d="m 584.93072,661.30622 4.26,0.543 c 2.739,2.423 2.033,1.152 2.634,4.78 -1.25,3.951 -1.817,4.315 -4.967,6.874 -4.329,-0.743 -5.901,-1.109 -7.142,-5.205 0.814,-3.706 2.371,-4.587 5.215,-6.992 z"
     id="path91" />
  <path
     fill="#fefefe"
     d="m 1469.1647,287.59722 c 2.39,-2.095 6.02,-1.889 8.16,0.465 2.14,2.353 2,5.986 -0.31,8.167 -1.54,1.446 -3.73,1.951 -5.75,1.32 -2.01,-0.63 -3.52,-2.298 -3.96,-4.361 -0.44,-2.064 0.28,-4.201 1.86,-5.591 z"
     id="path92" />
  <path
     fill="#fefefe"
     d="m 1512.3547,345.94822 c 1.9,-0.992 4.18,-0.865 5.96,0.331 1.77,1.195 2.75,3.267 2.54,5.395 -0.21,2.129 -1.57,3.973 -3.54,4.802 -2.88,1.21 -6.19,-0.063 -7.52,-2.887 -1.33,-2.824 -0.2,-6.194 2.56,-7.641 z"
     id="path93" />
  <path
     fill="#fefefe"
     d="m 496.81072,825.82722 c 2.818,-0.765 5.767,0.682 6.885,3.38 1.118,2.699 0.058,5.807 -2.476,7.26 -1.954,1.12 -4.379,1.009 -6.222,-0.284 -1.844,-1.293 -2.773,-3.536 -2.385,-5.754 0.389,-2.218 2.025,-4.012 4.198,-4.602 z"
     id="path94" />
  <path
     fill="#fefefe"
     d="m 1475.4147,410.26722 c 4.85,0.54 6.28,0.589 7.9,5.327 -0.89,3.514 -1.57,3.919 -4.29,6.194 -4.6,-0.764 -6.26,-0.541 -8.23,-4.949 0.63,-3.406 2.09,-4.295 4.62,-6.572 z"
     id="path95" />
  <path
     fill="#fefefe"
     d="m 1468.9547,266.02022 c 2.56,-1.798 6.08,-1.226 7.94,1.288 1.85,2.515 1.35,6.05 -1.12,7.958 -1.65,1.272 -3.86,1.553 -5.77,0.733 -1.91,-0.82 -3.23,-2.612 -3.45,-4.683 -0.22,-2.071 0.7,-4.097 2.4,-5.296 z"
     id="path96" />
  <path
     fill="#fefefe"
     d="m 568.01972,881.37522 c 4.797,0.99 6.673,1.11 9.044,5.644 -0.959,4.039 -0.203,2.512 -3.281,5.75 -4.259,-0.831 -7.42,-1.025 -9.324,-5.406 0.807,-4.038 0.408,-2.747 3.561,-5.988 z"
     id="path97" />
  <path
     fill="#fefefe"
     d="m 1216.1147,155.32122 c 2.45,-1.823 5.91,-1.358 7.8,1.049 1.88,2.406 1.51,5.878 -0.85,7.826 -1.58,1.307 -3.74,1.653 -5.65,0.905 -1.91,-0.749 -3.26,-2.474 -3.53,-4.506 -0.27,-2.032 0.58,-4.051 2.23,-5.274 z"
     id="path98" />
  <path
     fill="#fefefe"
     d="m 555.78072,842.29222 c 3.02,-0.249 5.695,1.936 6.056,4.944 0.361,3.008 -1.722,5.764 -4.715,6.237 -2.038,0.322 -4.089,-0.496 -5.346,-2.131 -1.258,-1.636 -1.521,-3.828 -0.686,-5.715 0.835,-1.887 2.635,-3.166 4.691,-3.335 z"
     id="path99" />
  <path
     fill="#fefefe"
     d="m 837.22072,964.11922 c 2.91,-1.039 6.114,0.459 7.183,3.358 1.069,2.899 -0.396,6.118 -3.284,7.216 -1.894,0.721 -4.03,0.368 -5.593,-0.923 -1.562,-1.291 -2.311,-3.322 -1.961,-5.318 0.351,-1.997 1.746,-3.651 3.655,-4.333 z"
     id="path100" />
  <path
     fill="#fefefe"
     d="m 581.12672,899.19222 c 2.48,-1.733 5.886,-1.198 7.714,1.212 1.829,2.41 1.427,5.835 -0.909,7.756 -1.596,1.312 -3.78,1.645 -5.694,0.869 -1.914,-0.775 -3.25,-2.536 -3.482,-4.588 -0.231,-2.052 0.678,-4.066 2.371,-5.249 z"
     id="path101" />
  <path
     fill="#fefefe"
     d="m 1454.2147,225.54422 c 4.92,1.353 6.65,1.346 7.88,6.55 -1.78,3.824 -1.23,2.7 -4.96,5.342 -4.33,-2.105 -5.74,-2.746 -7.22,-7.157 1.33,-3.295 1.05,-2.39 4.3,-4.735 z"
     id="path102" />
  <path
     fill="#fefefe"
     d="m 1523.4747,244.18222 c 1.64,-1.38 3.93,-1.702 5.88,-0.829 1.96,0.873 3.25,2.788 3.32,4.93 0.07,2.142 -1.09,4.136 -2.99,5.133 -2.53,1.331 -5.66,0.541 -7.25,-1.83 -1.6,-2.372 -1.15,-5.564 1.04,-7.404 z"
     id="path103" />
  <path
     fill="#fefefe"
     d="m 553.58972,798.40222 c 4.813,-0.1 6.804,-0.321 10.146,2.735 0.777,3.084 0.039,4.034 -1.184,7.012 -4.61,0.13 -6.617,-0.128 -9.879,-2.96 -0.713,-3.917 -0.538,-2.725 0.917,-6.787 z"
     id="path104" />
  <path
     fill="#fefefe"
     d="m 1619.7447,315.31622 c 4.5,0.113 6.39,-0.076 9.22,3.302 0.26,2.944 -0.48,3.65 -2.03,6.28 -4.63,0.091 -6.05,0.051 -9.2,-2.656 -0.29,-4.097 -0.21,-2.889 2.01,-6.926 z"
     id="path105" />
  <path
     fill="#fefefe"
     d="m 389.83772,835.13122 c 2.668,-1.04 5.681,0.208 6.832,2.83 1.151,2.622 0.03,5.685 -2.542,6.944 -1.762,0.863 -3.855,0.69 -5.451,-0.449 -1.597,-1.139 -2.441,-3.062 -2.198,-5.008 0.242,-1.947 1.532,-3.604 3.359,-4.317 z"
     id="path106" />
  <path
     fill="#fefefe"
     d="m 586.79572,726.50322 c 4.744,-0.023 6.342,-0.057 9.499,2.757 0.774,3.049 -0.275,4.426 -1.658,7.203 -3.707,-0.424 -6.835,-0.808 -9.241,-3.665 -0.421,-3.976 -0.652,-2.345 1.4,-6.295 z"
     id="path107" />
  <path
     fill="#fefefe"
     d="m 556.40072,696.81122 c 4.302,0.988 5.6,1.091 6.097,5.311 -1.364,3.208 -2.883,3.748 -5.838,5.468 -4.236,-1.526 -4.994,-1.927 -5.505,-6.112 1.5,-2.862 2.347,-3.109 5.246,-4.667 z"
     id="path108" />
  <path
     fill="#fefefe"
     d="m 1349.1947,281.09822 c 4.07,0.301 5.66,0.632 8.37,3.597 0.86,3.945 0.93,2.282 -0.7,6.422 -4.32,-0.364 -7.08,-0.402 -10.1,-3.376 -0.02,-4.046 -0.05,-2.828 2.43,-6.643 z"
     id="path109" />
  <path
     fill="#fefefe"
     d="m 1463.8947,245.27422 c 1.48,-1.169 3.47,-1.45 5.22,-0.736 1.75,0.715 2.97,2.314 3.21,4.186 0.24,1.872 -0.55,3.727 -2.06,4.854 -2.3,1.71 -5.54,1.26 -7.28,-1.011 -1.74,-2.271 -1.34,-5.519 0.91,-7.293 z"
     id="path110" />
  <path
     fill="#fefefe"
     d="m 1630.2147,283.36922 c 2.23,-1.702 5.39,-1.354 7.2,0.79 1.8,2.145 1.59,5.327 -0.47,7.222 -1.42,1.303 -3.44,1.723 -5.26,1.092 -1.82,-0.631 -3.15,-2.211 -3.45,-4.113 -0.31,-1.902 0.45,-3.819 1.98,-4.991 z"
     id="path111" />
  <path
     fill="#fefefe"
     d="m 810.11472,972.43322 c 2.029,-1.965 5.268,-1.909 7.228,0.124 1.961,2.033 1.899,5.271 -0.137,7.228 -2.031,1.952 -5.259,1.89 -7.215,-0.137 -1.955,-2.028 -1.9,-5.256 0.124,-7.215 z"
     id="path112" />
  <path
     fill="#fefefe"
     d="m 399.60772,802.75622 c 2.434,-1.012 5.236,0.008 6.45,2.347 1.214,2.339 0.436,5.218 -1.792,6.626 -1.619,1.023 -3.677,1.048 -5.319,0.063 -1.643,-0.985 -2.591,-2.812 -2.451,-4.722 0.14,-1.91 1.343,-3.579 3.112,-4.314 z"
     id="path113" />
  <path
     fill="#fefefe"
     d="m 666.48172,817.48422 c 3.596,0.227 5.912,0.536 7.748,3.701 -1.014,3.413 -1.139,2.715 -4.165,5.427 -3.933,-0.508 -5.809,-0.504 -7.885,-3.797 1.228,-3.401 1.273,-2.692 4.302,-5.331 z"
     id="path114" />
  <path
     fill="#fefefe"
     d="m 1636.9347,253.81722 c 2.37,-1.181 5.24,-0.31 6.55,1.985 1.31,2.294 0.6,5.212 -1.62,6.646 -1.55,1.001 -3.52,1.064 -5.13,0.163 -1.61,-0.9 -2.59,-2.616 -2.55,-4.459 0.05,-1.843 1.1,-3.511 2.75,-4.335 z"
     id="path115" />
  <path
     fill="#fefefe"
     d="m 510.02272,763.55322 c 0.522,-0.056 1.045,-0.104 1.569,-0.144 3.832,-0.292 5.361,-0.402 7.931,1.77 0.49,2.792 -0.32,3.672 -1.688,6.288 -4.203,0.352 -4.946,0.652 -8.188,-1.242 -0.98,-3.512 -0.594,-2.755 0.376,-6.672 z"
     id="path116" />
  <path
     fill="#fefefe"
     d="m 513.19972,896.88222 c 1.572,-0.762 3.433,-0.619 4.869,0.376 1.436,0.995 2.225,2.687 2.064,4.426 -0.162,1.74 -1.248,3.257 -2.842,3.971 -2.414,1.081 -5.248,0.024 -6.365,-2.372 -1.118,-2.397 -0.105,-5.247 2.274,-6.401 z"
     id="path117" />
  <path
     fill="#fefefe"
     d="m 628.55772,773.08222 c 2.555,-0.746 5.228,0.731 5.956,3.291 0.728,2.559 -0.767,5.222 -3.332,5.932 -2.539,0.704 -5.171,-0.774 -5.892,-3.308 -0.721,-2.535 0.739,-5.177 3.268,-5.915 z"
     id="path118" />
  <path
     fill="#fefefe"
     d="m 1398.5947,155.38222 c 3.92,1.14 4.57,1.482 6.26,4.286 -0.86,3.781 -0.71,2.755 -3.79,5.849 -3.11,-1.601 -5.55,-2.338 -6.97,-5.368 0.99,-3.093 1.41,-2.608 4.5,-4.767 z"
     id="path119" />
  <path
     fill="#fefefe"
     d="m 1435.7347,382.43222 c 3.49,0.013 6.85,-0.185 9.35,2.209 0.63,3.484 0.61,2.096 -0.89,5.969 -3.23,0.151 -5.98,0.228 -8.45,-1.858 -1.2,-3.465 -0.94,-2.073 -0.01,-6.32 z"
     id="path120" />
  <path
     fill="#fefefe"
     d="m 1161.4847,216.32822 c 1.34,-1.087 3.15,-1.361 4.75,-0.714 1.59,0.647 2.7,2.112 2.9,3.82 0.19,1.708 -0.56,3.386 -1.97,4.375 -2.07,1.455 -4.92,1.012 -6.45,-1.003 -1.52,-2.014 -1.18,-4.877 0.77,-6.478 z"
     id="path121" />
  <path
     fill="#fefefe"
     d="m 884.96672,891.55322 c 4.354,0.2 5.21,0.035 7.744,2.585 0.209,2.872 -0.875,3.934 -2.462,6.411 -3.143,-0.564 -5.226,-0.567 -7.255,-3.07 -0.153,-3.64 -0.379,-2.204 1.973,-5.926 z"
     id="path122" />
  <path
     fill="#fefefe"
     d="m 1455.7747,341.67922 c 3.34,0.071 5.74,-0.288 8.36,1.593 0.69,3.33 0.34,2.527 -1.67,6.258 -3.36,-0.41 -4.85,-0.354 -7.64,-2.424 -0.83,-3.159 -0.88,-1.791 0.95,-5.427 z"
     id="path123" />
  <path
     fill="#fefefe"
     d="m 843.88872,904.82022 c 3.525,-0.396 4.275,-0.561 7.788,0.421 2.133,2.821 1.551,1.516 1.4,6.021 -3.237,0.263 -4.885,0.665 -7.833,-0.841 -1.935,-2.932 -1.455,-1.568 -1.355,-5.601 z"
     id="path124" />
  <path
     fill="#fefefe"
     fill-opacity="0.827451"
     d="m 819.09172,569.58322 c 3.861,-4.994 -1.098,-23.296 2.195,-28.604 0.102,5.631 1.217,31.094 -0.99,34.277 -1.225,-1.794 -1.062,-3.458 -1.205,-5.673 z"
     id="path125" />
</svg>
