<?xml version="1.0" encoding="UTF-8" standalone="no"?>
<svg
   width="98.139999"
   height="96.360001"
   viewBox="0 0 98.14 96.360001"
   version="1.1"
   xml:space="preserve"
   style="clip-rule:evenodd;fill-rule:evenodd;stroke-linejoin:round;stroke-miterlimit:2"
   id="svg10"
   sodipodi:docname="Stoat_White.0j9eZHi-.svg"
   inkscape:version="1.4.3 (0d15f75042, 2025-12-25)"
   xmlns:inkscape="http://www.inkscape.org/namespaces/inkscape"
   xmlns:sodipodi="http://sodipodi.sourceforge.net/DTD/sodipodi-0.dtd"
   xmlns="http://www.w3.org/2000/svg"
   xmlns:svg="http://www.w3.org/2000/svg"><defs
   id="defs10" /><sodipodi:namedview
   id="namedview10"
   pagecolor="#505050"
   bordercolor="#eeeeee"
   borderopacity="1"
   inkscape:showpageshadow="0"
   inkscape:pageopacity="0"
   inkscape:pagecheckerboard="0"
   inkscape:deskcolor="#505050"
   inkscape:zoom="17.94052"
   inkscape:cx="47.601741"
   inkscape:cy="43.254041"
   inkscape:window-width="2560"
   inkscape:window-height="1372"
   inkscape:window-x="0"
   inkscape:window-y="0"
   inkscape:window-maximized="1"
   inkscape:current-layer="svg10" />
    <g
   transform="translate(-757,-1862)"
   id="g10">
        <g
   transform="matrix(1.432974,0,0,1.80298,-288.92902,-864.20063)"
   id="g9">
            <g
   id="g3">
                <g
   transform="matrix(0.629919,0,0,0.500647,539.40753,1320.9441)"
   id="g1">
                    <path
   d="m 319.75853,475.77232 c -10.63823,-9.91634 -17.29513,-24.04974 -17.29513,-39.72588 0,-29.97159 24.33316,-54.30443 54.30443,-54.30443 29.9716,0 54.30445,24.33284 54.30445,54.30443 0,24.94297 -16.85284,45.98051 -39.78321,52.33764 -5.08915,-7.47777 -9.70175,-14.28937 -6.25303,-25.50088 -4.20776,2.14775 -6.8526,6.37185 -7.65295,10.96394 -1.56583,-2.46067 -3.30396,-4.83389 -5.31785,-6.94834 -5.12567,-5.38254 -12.11438,-9.14641 -15.34818,-16.13606 -1.47741,-3.30139 -2.48981,-8.02128 -1.31952,-11.43731 0.84456,6.63032 4.07004,12.73058 9.84714,16.2632 4.4041,2.69222 9.33857,3.13579 14.27817,4.17765 5.14904,1.08477 13.32725,3.53168 18.34433,2.64771 4.17062,-0.73343 12.9218,-5.33994 12.68832,-10.33588 -0.0817,-1.71891 -2.18011,-4.61549 -2.95613,-6.27418 -1.03257,-2.20829 -0.41957,-2.68518 -0.3017,-4.90051 0.33213,-6.27002 -1.3237,-9.36772 -4.36918,-14.53085 -3.69341,-6.26297 -7.74744,-10.04734 -14.76818,-12.58936 -6.41605,-2.3239 -16.29043,-1.00853 -16.36569,-0.90189 1.29711,1.42203 2.49077,3.08584 2.65795,5.05522 -2.62976,-2.43248 -5.17403,-5.01805 -8.11896,-7.08031 -6.51372,-4.56006 -10.5937,-4.13026 -13.18345,3.80134 -1.34963,4.1325 -2.37002,9.7485 -1.11904,13.97549 0.75874,2.56027 2.33385,4.64365 4.12739,6.56499 -3.50957,-0.47818 -5.63716,-3.52655 -6.41094,-6.83082 -8.69897,18.81611 -10.63568,27.91448 -9.98904,47.40509 z m 64.53081,-18.01799 -9.6e-4,-9.7e-4 c -1.35062,0.0413 -2.5968,-0.67641 -3.61527,-1.49855 -0.57457,-0.48715 -1.41689,-1.11713 -1.53476,-1.84671 -0.23348,-1.45245 0.92303,-2.4911 1.61226,-2.92187 0.59092,-0.36831 1.30961,-0.5736 1.98795,-0.73054 1.5466,-0.35742 3.15214,-0.68859 4.70996,-0.38562 0.46599,0.0907 0.92911,0.24149 1.31248,0.52142 0.38338,0.27864 0.68123,0.70044 0.73278,1.17252 0.0381,0.35005 -0.0576,0.69947 -0.17326,1.03161 -0.26968,0.76352 -0.64183,1.48702 -1.10623,2.15063 -0.4599,0.66137 -1.01015,1.26829 -1.67342,1.72501 -0.66329,0.45703 -1.44637,0.75904 -2.25153,0.78307 z m -23.0777,-21.33349 c 5.34122,-0.7235 5.99234,7.54728 0.83944,7.89445 -5.15289,0.34718 -5.73355,-7.23115 -0.83944,-7.89445 z m -17.99493,-16.42013 c 0.49322,1.17571 1.50945,1.95879 2.38732,2.8213 -1.99273,0.60467 -4.00374,0.0272 -5.75308,-0.97524 0.10374,1.84765 1.47166,3.47722 2.49621,4.77529 -1.68879,0.38753 -3.1816,-0.19122 -4.341,-1.41082 -0.0169,1.717 0.56785,3.2146 1.41016,4.66671 -3.294,1.63853 -4.71602,-1.80762 -4.88417,-4.50464 -0.18417,-2.96414 1.01528,-10.44287 3.14189,-12.59768 2.37932,-2.41134 6.07497,0.39746 8.08982,2.01678 1.77847,1.42842 3.48937,3.15436 5.10068,4.76343 -2.11541,1.398 -5.26659,1.33971 -7.64783,0.44487 z m 41.3977,21.59322 c -1.16451,-2.02479 -1.52066,-2.61377 -2.19805,-4.07999 -0.46086,-0.99861 -0.69435,-2.18298 0.97621,-2.2182 3.03043,-0.0644 4.08029,4.73524 1.72018,6.40997 -0.0582,0.0406 -0.12746,0.0624 -0.19823,0.0624 -0.12396,0 -0.23862,-0.0666 -0.30011,-0.17422 z m -1.99082,-19.32247 c 0.8596,-11.81878 0.75904,-19.46757 -10.20202,-8.73902 4.1373,1.92421 7.61644,4.99404 10.20202,8.73902 z"
   style="fill:#ffffff;stroke-width:0.320275"
   id="path1" />
                </g>
                <g
   transform="matrix(1.730725,0,0,1.375547,-3179.0526,119.09865)"
   id="g2">
                    <circle
   cx="2320.479"
   cy="1074.483"
   r="61.710999"
   style="fill:#ffffff;fill-opacity:0"
   id="circle1" />
                </g>
            </g>
            <g
   transform="matrix(4.075683,0,0,3.239275,-459.16405,-1037.7576)"
   id="g8">
                
                
                <g
   transform="translate(-0.799373)"
   id="g5">
                    
                </g>
                <g
   transform="translate(-1.50815,-0.391222)"
   id="g6">
                    
                </g>
                <g
   transform="translate(-2.465302)"
   id="g7">
                    
                </g>
            </g>
        </g>
    </g>
</svg>
